<svg xmlns="http://www.w3.org/2000/svg" viewBox="0 0 448 512">
  <path fill="#FF5A5F" d="M224 373.1c-25.2-31.6-75.6-77.6-75.6-160.8 0-80.4 49.8-134.8 75.6-134.8s75.6 54.4 75.6 134.8c0 83.1-50.4 129.2-75.6 160.8zm56.8 53.9c16.4-16.6 15.2-43.9-3.3-59.7-10.9-8.9-24.3-12.7-37.7-11-14.5 1.8-34.9 11.2-57.8 32.3-17.2 15.8-20.6 41.9-8.1 61 8.1 12.3 21.2 20 36.1 21.1 27.6 2.2 47.9-16.4 70.8-43.7zm111.3-39.9c-21.8-35.9-64.9-43.5-98.4-40.1-14.4 1.5-42.3 11.3-69 35.6-23.5-33.8-65.5-35.8-99.3-16.3-42.2 24.2-53.4 76.8-29.5 117.9 14.2 24.4 38.2 40.9 65.3 48.1 27.8 7.2 56.9 3.7 82.9-9.9 32.8-17.1 57.7-47.9 67.6-82.2 14.9-51.4-5.2-95.4-19.6-53.1zm-137.4 56.2c-19 31.2-47.3 47.3-62.1 42.3-4.8-1.6-14-9-18.6-24.5-5.1-16.9-.6-38.5 12.7-53.1 18.2-19.9 48-29.5 61.7-27.6 6.1.8 13.1 4.7 17.2 13.6 8.8 18.9 2 35.2-10.9 49.3z"/>
</svg>